<svg version="1.1" xmlns="http://www.w3.org/2000/svg" xmlns:xlink="http://www.w3.org/1999/xlink" width="48" height="48"><defs><linearGradient x1="11.68966" y1="11.68966" x2="63.1804" y2="63.1804" gradientUnits="userSpaceOnUse" id="color-1"><stop offset="0" stop-color="#000000" stop-opacity="0.12"></stop><stop offset="1" stop-color="#000000" stop-opacity="0"></stop></linearGradient><filter id="dropshadow-base"><feColorMatrix type="matrix" values="0 0 0 0 0  0 0 0 0 0  0 0 0 0 0  0 0 0 .8 0"></feColorMatrix> <feOffset dx="0" dy="1"></feOffset> <feGaussianBlur stdDeviation="1"></feGaussianBlur> <feComposite in="SourceGraphic"></feComposite></filter><filter id="dropshadow-banner" x="-10%" y="-10%" width="120%" height="130%"><feColorMatrix type="matrix" values="0 0 0 0 0  0 0 0 0 0  0 0 0 0 0  0 0 0 .4 0"></feColorMatrix> <feOffset dx="0" dy="1"></feOffset> <feGaussianBlur stdDeviation="0.5"></feGaussianBlur> <feComposite in="SourceGraphic"></feComposite></filter></defs><g fill="none" fill-rule="nonzero" stroke="none" stroke-width="none" stroke-linecap="butt" stroke-linejoin="miter" stroke-miterlimit="10" stroke-dasharray="" stroke-dashoffset="0" font-family="none" font-weight="none" font-size="none" text-anchor="none" style="mix-blend-mode: normal"><g fill="#000000" stroke-width="1" font-family="Roboto, sans-serif" font-weight="400" font-size="14" text-anchor="start"></g><path d="M5,45c-1.10457,0 -2,-0.89543 -2,-2v-38c0,-1.10457 0.89543,-2 2,-2h38c1.10457,0 2,0.89543 2,2v38c0,1.10457 -0.89543,2 -2,2z" id="base 1 1" fill="#1665cc" stroke-width="1" filter="url(#dropshadow-base)"></path><path d="M23.99316,11.68966c3.4033,0 6.48328,1.37877 8.7121,3.60758l12.29474,12.29474v15.40801c0,1.10457 -0.89543,2 -2,2h-15.41486l-12.29053,-12.29053c-2.22823,-2.22823 -3.60495,-5.30789 -3.60495,-8.70947c0,-4.02822 1.9423,-7.59821 4.93097,-9.84143l0.01368,-0.02736l15.27109,15.27109c0.33184,-0.48456 0.62029,-1.00116 0.85975,-1.54418l-2.8921,-2.8921c-0.24792,-0.24792 -0.4018,-0.58987 -0.4018,-0.96602l-6.83908,-6.83908v-5.47126z" fill="url(#color-1)" stroke-width="1"></path><path d="M22.63218,30.83908c0,0.7523 0.61552,1.36782 1.36782,1.36782c0.7523,0 1.36782,-0.61552 1.36782,-1.36782c0,-0.7523 -0.61552,-1.36782 -1.36782,-1.36782c-0.7523,0 -1.36782,0.61552 -1.36782,1.36782zM22.63218,11.68966v5.47126h2.73563v-2.62621c4.63689,0.66339 8.20689,4.64373 8.20689,9.46528c0,5.28661 -4.2881,9.57471 -9.57471,9.57471c-5.28661,0 -9.57471,-4.2881 -9.57471,-9.57471c0,-2.29793 0.80701,-4.39753 2.15431,-6.05258l7.4204,7.4204l1.93546,-1.93546l-9.30114,-9.30114l-0.01368,0.02736c-2.98868,2.24322 -4.93097,5.81322 -4.93097,9.84143c0,6.79804 5.49862,12.31034 12.3035,12.31034c6.80488,0 12.31718,-5.5123 12.31718,-12.31034c0,-6.79804 -5.5123,-12.31034 -12.31718,-12.31034zM32.20689,24c0,-0.7523 -0.61552,-1.36782 -1.36782,-1.36782c-0.7523,0 -1.36782,0.61552 -1.36782,1.36782c0,0.7523 0.61552,1.36782 1.36782,1.36782c0.7523,0 1.36782,-0.61552 1.36782,-1.36782zM15.79311,24c0,0.7523 0.61552,1.36782 1.36782,1.36782c0.7523,0 1.36782,-0.61552 1.36782,-1.36782c0,-0.7523 -0.61552,-1.36782 -1.36782,-1.36782c-0.7523,0 -1.36782,0.61552 -1.36782,1.36782z" fill="#ffffff" stroke-width="0"></path></g></svg>